<svg width="149" height="36" viewBox="0 0 149 36" fill="none" xmlns="http://www.w3.org/2000/svg">
<path d="M58.1296 29.3152C56.2382 29.3152 54.8149 28.8472 53.8596 27.911C52.9044 26.9558 52.4268 25.5325 52.4268 23.6411V17.709H49.6757V14.4707H52.4268V10.9172L56.754 9.85687V14.4707H60.4795V17.709H56.754V23.4118C56.754 24.3288 56.9451 24.9593 57.3272 25.3032C57.7093 25.6471 58.1965 25.819 58.7887 25.819C59.1517 25.819 59.4478 25.7999 59.6771 25.7617C59.9255 25.7044 60.1834 25.628 60.4508 25.5325V28.8854C60.0878 29.0382 59.7057 29.1433 59.3045 29.2006C58.9033 29.277 58.5117 29.3152 58.1296 29.3152ZM62.3848 29V18.3108C62.3848 17.6803 62.3657 17.0403 62.3274 16.3908C62.3083 15.7412 62.2606 15.1012 62.1842 14.4707H66.3395L66.8267 18.712H66.1675C66.3586 17.6803 66.6643 16.8302 67.0846 16.1615C67.524 15.4928 68.0589 14.9961 68.6894 14.6713C69.339 14.3465 70.0745 14.1841 70.896 14.1841C71.259 14.1841 71.5456 14.2032 71.7557 14.2414C71.9659 14.2606 72.176 14.3083 72.3862 14.3847L72.3575 18.1962C71.9563 18.0242 71.6124 17.9191 71.3259 17.8809C71.0584 17.8236 70.7145 17.795 70.2942 17.795C69.4918 17.795 68.8231 17.9478 68.2882 18.2535C67.7724 18.5592 67.3807 19.0081 67.1132 19.6004C66.8649 20.1926 66.7407 20.9091 66.7407 21.7497V29H62.3848ZM79.4144 29.3152C78.1535 29.3152 77.0454 29.0096 76.0902 28.3982C75.1349 27.7868 74.3898 26.9176 73.8549 25.7904C73.3199 24.6632 73.0525 23.3067 73.0525 21.721C73.0525 20.1544 73.3199 18.8075 73.8549 17.6803C74.3898 16.5531 75.1349 15.6934 76.0902 15.1012C77.0454 14.4898 78.1535 14.1841 79.4144 14.1841C80.5798 14.1841 81.621 14.4707 82.5381 15.0439C83.4742 15.5979 84.0856 16.3525 84.3721 17.3078H84.0569L84.4008 14.4707H88.5561C88.4988 15.1012 88.4415 15.7412 88.3842 16.3908C88.346 17.0212 88.3269 17.6421 88.3269 18.2535V29H84.0283L83.9996 26.2775H84.3435C84.0378 27.1946 83.4264 27.9301 82.5094 28.4842C81.5924 29.0382 80.5607 29.3152 79.4144 29.3152ZM80.7327 26.0483C81.7261 26.0483 82.5285 25.6948 83.1399 24.988C83.7512 24.2811 84.0569 23.1921 84.0569 21.721C84.0569 20.2499 83.7512 19.1705 83.1399 18.4827C82.5285 17.795 81.7261 17.4511 80.7327 17.4511C79.7392 17.4511 78.9368 17.795 78.3254 18.4827C77.7141 19.1705 77.4084 20.2499 77.4084 21.721C77.4084 23.1921 77.7045 24.2811 78.2968 24.988C78.9081 25.6948 79.7201 26.0483 80.7327 26.0483ZM91.5891 29V18.2535C91.5891 17.6421 91.57 17.0212 91.5318 16.3908C91.4936 15.7412 91.4363 15.1012 91.3598 14.4707H95.5152L95.8304 17.1645H95.4865C95.9641 16.2093 96.6423 15.4737 97.5212 14.9579C98.4 14.4421 99.4221 14.1841 100.588 14.1841C102.288 14.1841 103.558 14.6809 104.399 15.6743C105.259 16.6487 105.689 18.1675 105.689 20.2308V29H101.361V20.4314C101.361 19.3807 101.17 18.6356 100.788 18.1962C100.406 17.7568 99.8329 17.537 99.0687 17.537C98.1134 17.537 97.3492 17.8427 96.7761 18.4541C96.2029 19.0463 95.9164 19.8487 95.9164 20.8613V29H91.5891ZM108.448 29V26.1916L117.102 16.6773V17.709H108.448V14.4707H121V17.3078L112.23 26.908L112.202 25.7904H121.286V29H108.448ZM123.787 29V14.4707H128.114V29H123.787ZM123.615 12.0921V8.05146H128.258V12.0921H123.615ZM138.672 29.3152C136.15 29.3152 134.183 28.637 132.769 27.2806C131.355 25.9241 130.648 24.0805 130.648 21.7497C130.648 20.2404 130.944 18.9222 131.537 17.795C132.148 16.6678 132.989 15.7889 134.058 15.1585C135.147 14.5089 136.418 14.1841 137.87 14.1841C139.303 14.1841 140.497 14.4898 141.452 15.1012C142.426 15.7125 143.152 16.5722 143.63 17.6803C144.127 18.7693 144.375 20.0398 144.375 21.4918V22.4948H134.202V20.3455H141.223L140.736 20.7467C140.736 19.5431 140.487 18.6356 139.991 18.0242C139.513 17.3938 138.816 17.0785 137.899 17.0785C136.886 17.0785 136.103 17.4511 135.549 18.1962C135.014 18.9413 134.746 20.0111 134.746 21.4058V21.8643C134.746 23.2781 135.09 24.3288 135.778 25.0166C136.485 25.7044 137.497 26.0483 138.816 26.0483C139.599 26.0483 140.334 25.9528 141.022 25.7617C141.729 25.5516 142.398 25.2268 143.028 24.7874L144.232 27.6531C143.506 28.188 142.665 28.5988 141.71 28.8854C140.774 29.1719 139.761 29.3152 138.672 29.3152Z" fill="#6424FF"/>
<path d="M27.8745 9.80474C28.2139 9.79718 28.5504 9.86914 28.857 10.0149C29.1636 10.1606 29.4318 10.376 29.6403 10.6439C33.8173 14.821 37.9944 19.0208 42.2208 23.1751C43.2499 24.189 43.2803 24.9978 42.2208 26.0231C39.1121 29.061 36.0388 32.1317 33.0009 35.2354C31.949 36.3138 31.1364 36.2075 30.1529 35.1936C28.272 33.2469 26.3569 31.333 24.4076 29.4521C23.3557 28.4116 23.4317 27.5914 24.4759 26.6079C25.8657 25.3282 27.134 23.9498 28.5049 22.6245C29.4618 21.6942 29.4998 20.8284 28.5049 19.8828C27.0999 18.5272 25.7594 17.107 24.3544 15.7551C23.3709 14.8096 23.3633 13.9742 24.3886 13.0552C25.2772 12.254 26.0898 11.373 26.9404 10.53C27.3087 10.1845 27.6505 9.80474 27.8745 9.80474Z" fill="#6424FF"/>
<path d="M14.7282 32.6606C14.1814 32.5885 13.8396 32.2087 13.4827 31.8632C9.24864 27.6519 5.03361 23.3914 0.769218 19.1953C-0.286438 18.1586 -0.233276 17.3536 0.792002 16.3473C3.85264 13.355 6.88291 10.3298 9.88279 7.27172C10.8663 6.27302 11.6865 6.09835 12.7346 7.19197C14.6535 9.18683 16.6142 11.1437 18.6166 13.0626C19.6153 14.0196 19.6115 14.8284 18.6166 15.7663C17.2572 17.0764 15.9585 18.4662 14.5953 19.7573C13.4561 20.8206 13.5168 21.7319 14.6257 22.7686C16.0041 24.0597 17.2838 25.4609 18.6508 26.7558C19.585 27.6406 19.6077 28.438 18.6926 29.319C17.7774 30.2 16.9078 31.0923 16.0345 31.9771C15.7036 32.365 15.2355 32.61 14.7282 32.6606Z" fill="#55DBFF"/>
<path d="M26.2378 21.1475C26.1846 22.0056 25.5543 22.4727 25.0265 22.993C21.0583 26.927 22.0304 26.7143 18.2217 22.993C16.4901 21.2956 16.5015 21.0943 18.2217 19.3817C22.019 15.6186 21.138 15.6831 24.8974 19.3817C25.4366 19.9095 26.0897 20.3424 26.2378 21.1475Z" fill="#55DBFF"/>
</svg>
